<svg width="64" height="64" viewBox="0 0 64 64" fill="none" xmlns="http://www.w3.org/2000/svg">
<circle opacity="0.1" cx="32" cy="32" r="32" fill="#2EBBBE"/>
<path fill-rule="evenodd" clip-rule="evenodd" d="M22.4223 18.8516H25.1182V20.5354C25.1182 22.3511 26.6037 23.8366 28.4193 23.8366H35.5806C37.3963 23.8366 38.8818 22.3511 38.8818 20.5354V18.8516H41.5777C42.7876 18.8516 43.7775 19.847 43.7775 21.0636V45.788C43.7775 47.0046 42.7876 48 41.5777 48H22.4223C21.2124 48 20.2224 47.0046 20.2224 45.788V21.0636C20.2225 19.8471 21.2124 18.8516 22.4223 18.8516V18.8516ZM28.4194 16C27.777 16 27.2515 16.5255 27.2515 17.1679V20.5354C27.2515 21.1778 27.777 21.7033 28.4194 21.7033H35.5806C36.2229 21.7033 36.7485 21.1778 36.7485 20.5354V17.1679C36.7485 16.5255 36.2229 16 35.5806 16H28.4194ZM27.5013 29.8357H36.4987C37.0878 29.8357 37.5653 29.3581 37.5653 28.769C37.5653 28.1799 37.0878 27.7024 36.4987 27.7024H27.5013C26.9122 27.7024 26.4346 28.1799 26.4346 28.769C26.4346 29.3581 26.9122 29.8357 27.5013 29.8357V29.8357ZM27.5013 41.883H36.4987C37.0878 41.883 37.5653 41.4054 37.5653 40.8164C37.5653 40.2273 37.0878 39.7497 36.4987 39.7497H27.5013C26.9122 39.7497 26.4346 40.2273 26.4346 40.8164C26.4346 41.4054 26.9122 41.883 27.5013 41.883V41.883ZM27.5013 35.8594H36.4987C37.0878 35.8594 37.5653 35.3818 37.5653 34.7927C37.5653 34.2036 37.0878 33.7261 36.4987 33.7261H27.5013C26.9122 33.7261 26.4346 34.2036 26.4346 34.7927C26.4346 35.3817 26.9122 35.8594 27.5013 35.8594V35.8594Z" fill="#2EBBBE"/>
</svg>
